<svg width="168" height="103" viewBox="0 0 168 103" fill="none" xmlns="http://www.w3.org/2000/svg">
<g clip-path="url(#clip0_402_1303)">
<g clip-path="url(#clip1_402_1303)">
<mask id="mask0_402_1303" style="mask-type:luminance" maskUnits="userSpaceOnUse" x="66" y="31" width="60" height="20">
<path d="M125.882 31.7653H66.8838V50.6446H125.882V31.7653Z" fill="white"/>
</mask>
<g mask="url(#mask0_402_1303)">
<path d="M72.5769 33.0538L76.3949 45.3119H76.5388L80.3405 33.0538H86.0337L79.9042 50.4381H73.011L66.8838 33.0538H72.5769Z" fill="white"/>
<path d="M87.8926 50.4383V37.4H92.8965V50.4383H87.8926ZM90.3945 36.0419C89.7489 36.0539 89.1239 35.8284 88.6537 35.4138C88.4254 35.2247 88.2424 34.9922 88.1172 34.7318C87.9919 34.4715 87.9272 34.1892 87.9272 33.9036C87.9272 33.618 87.9919 33.3358 88.1172 33.0755C88.2424 32.8151 88.4254 32.5827 88.6537 32.3934C89.1308 31.9893 89.7511 31.7656 90.3945 31.7656C91.0378 31.7656 91.6581 31.9893 92.1352 32.3934C92.3629 32.583 92.5453 32.8155 92.6701 33.0759C92.7949 33.3362 92.8593 33.6183 92.8593 33.9036C92.8593 34.1889 92.7949 34.4711 92.6701 34.7313C92.5453 34.9917 92.3629 35.2243 92.1352 35.4138C91.6659 35.8296 91.0403 36.0553 90.3945 36.0419Z" fill="white"/>
<path d="M103.278 46.9243C103.182 46.949 103.028 46.9771 102.814 47.0091C102.641 47.0413 102.466 47.0588 102.29 47.0612C102.107 47.0671 101.924 47.0383 101.754 46.9764C101.622 46.9195 101.514 46.8242 101.445 46.7049C101.375 46.5611 101.341 46.4043 101.345 46.2464V40.7964H103.74V37.3999H101.357V34.2772H96.3549V37.3999H94.5771V40.7964H96.3549V46.6875C96.313 47.481 96.5109 48.2696 96.926 48.9626C97.3347 49.5801 97.9549 50.0495 98.6852 50.2947C99.6145 50.5906 100.599 50.703 101.577 50.625C102.071 50.6063 102.563 50.5467 103.046 50.4467C103.464 50.3585 103.784 50.2824 104.007 50.2187L103.278 46.9243Z" fill="white"/>
<path d="M109.672 50.6423C108.865 50.6573 108.064 50.519 107.316 50.236C106.662 49.9757 106.106 49.5383 105.72 48.9801C105.308 48.3346 105.106 47.5908 105.139 46.8397C105.121 46.2114 105.254 45.5873 105.529 45.0142C105.776 44.5205 106.15 44.092 106.618 43.767C107.108 43.4325 107.658 43.1825 108.242 43.0281C108.899 42.8525 109.573 42.7418 110.255 42.6977C111.028 42.6413 111.654 42.5732 112.132 42.4935C112.499 42.4483 112.851 42.3298 113.165 42.1459C113.266 42.077 113.347 41.9862 113.403 41.8814C113.458 41.7766 113.486 41.6609 113.483 41.5439V41.5091C113.491 41.3564 113.456 41.2045 113.383 41.068C113.31 40.9313 113.201 40.8146 113.065 40.7291C112.747 40.5365 112.373 40.4415 111.995 40.4574C111.585 40.4424 111.18 40.5457 110.835 40.7529C110.683 40.8578 110.557 40.9916 110.465 41.1456C110.373 41.2996 110.317 41.4701 110.301 41.6461H105.685C105.741 40.862 106.019 40.106 106.49 39.4556C107.022 38.746 107.753 38.1878 108.602 37.8432C109.53 37.4348 110.686 37.2305 112.067 37.2305C112.974 37.219 113.878 37.3311 114.75 37.5629C115.477 37.7487 116.162 38.0564 116.772 38.4713C117.3 38.8269 117.735 39.2915 118.041 39.8294C118.337 40.3458 118.489 40.9232 118.484 41.5091V50.4381H113.808V48.6062H113.699C113.449 49.0601 113.103 49.4615 112.682 49.7862C112.285 50.0884 111.825 50.3103 111.331 50.4381C110.791 50.5796 110.233 50.6483 109.672 50.6423ZM111.297 47.6892C111.666 47.693 112.032 47.6187 112.367 47.472C112.698 47.3323 112.983 47.1125 113.193 46.8353C113.411 46.5388 113.522 46.1847 113.511 45.8248V44.7384C113.376 44.7905 113.235 44.8383 113.084 44.8839C112.933 44.9296 112.782 44.9708 112.62 45.0099C112.457 45.049 112.281 45.0881 112.093 45.1207C111.905 45.1534 111.721 45.1859 111.522 45.2142C111.189 45.2542 110.867 45.3491 110.57 45.4944C110.348 45.6017 110.16 45.7631 110.027 45.9618C109.91 46.1464 109.85 46.3576 109.853 46.5723C109.844 46.7318 109.876 46.8909 109.947 47.0359C110.018 47.181 110.126 47.3074 110.261 47.4045C110.565 47.6053 110.932 47.7054 111.304 47.6892H111.297Z" fill="white"/>
<path d="M125.881 33.0538V50.4381H120.875V33.0538H125.881Z" fill="white"/>
</g>
</g>
</g>
<defs>
<clipPath id="clip0_402_1303">
<rect width="167.896" height="102.3" fill="white"/>
</clipPath>
<clipPath id="clip1_402_1303">
<rect width="191.829" height="83.908" fill="white"/>
</clipPath>
</defs>
</svg>
